<svg width="657.9px" height="122px" xmlns="http://www.w3.org/2000/svg" viewBox="-78.94687499999998 14 657.89375 122" style="background: rgba(0, 0, 0, 0)" preserveAspectRatio="xMidYMid"><defs><linearGradient id="editing-gradient-gradient" x1="0" x2="1" y1="0.5" y2="0.5" gradientUnits="objectBoundingBox"><stop offset="0" stop-color="#002fc4"></stop><stop offset="1" stop-color="#ca8b19"></stop></linearGradient></defs><g><g transform="matrix(1.3,0,0,1.4,-48.1,150.2)"><path d="M 4.3 -36.4 L -9.7 -36.4 L -1.5 -78.6 L 12.5 -78.6 L 4.3 -36.4 Z M 60 -35.1 L 60 -35.1 L 60 -35.1 Q 52.3 -35.1 52.3 -41.1 L 52.3 -41.1 L 52.3 -41.1 Q 52.3 -43.7 53.4 -48.8 L 53.4 -48.8 L 53.4 -48.8 Q 54.5 -53.9 54.9 -56 L 54.9 -56 L 54.9 -56 Q 55.8 -60.6 55.8 -62.1 L 55.8 -62.1 L 55.8 -62.1 Q 55.8 -65.4 53.4 -65.4 L 53.4 -65.4 L 53.4 -65.4 Q 51.8 -65.4 50.2 -63.2 L 50.2 -63.2 L 50.2 -63.2 Q 48.7 -61 48 -56.5 L 48 -56.5 L 44 -36.4 L 31.5 -35.1 L 35 -52.5 L 35 -52.5 Q 35.6 -55.4 36.1 -58.6 L 36.1 -58.6 L 36.1 -58.6 Q 36.6 -61.9 36.6 -62.4 L 36.6 -62.4 L 36.6 -62.4 Q 36.6 -65.4 34.4 -65.4 L 34.4 -65.4 L 34.4 -65.4 Q 33 -65.4 31.4 -63.2 L 31.4 -63.2 L 31.4 -63.2 Q 29.8 -61 28.9 -56.5 L 28.9 -56.5 L 25 -36.4 L 12.3 -35.1 L 19.1 -69 L 29.5 -70.3 L 28.4 -63.8 L 28.4 -63.8 Q 30.1 -67.3 33.1 -68.8 L 33.1 -68.8 L 33.1 -68.8 Q 36.2 -70.3 41 -70.3 L 41 -70.3 L 41 -70.3 Q 43.8 -70.3 45.6 -69 L 45.6 -69 L 45.6 -69 Q 47.4 -67.6 47.9 -65.4 L 47.9 -65.4 L 47.9 -65.4 Q 49 -67.7 51.8 -69 L 51.8 -69 L 51.8 -69 Q 54.6 -70.3 58 -70.3 L 58 -70.3 L 58 -70.3 Q 61.4 -70.3 63.1 -69.6 L 63.1 -69.6 L 63.1 -69.6 Q 64.8 -68.8 65.8 -67.6 L 65.8 -67.6 L 65.8 -67.6 Q 67.6 -65.4 67.6 -61.3 L 67.6 -61.3 L 67.6 -61.3 Q 67.6 -57.2 65.8 -48.9 L 65.8 -48.9 L 65.8 -48.9 Q 65 -44.8 65 -43.3 L 65 -43.3 L 65 -43.3 Q 65 -41.8 65.8 -40.9 L 65.8 -40.9 L 65.8 -40.9 Q 66.7 -40 68 -39.8 L 68 -39.8 L 68 -39.8 Q 67.3 -37.7 65.1 -36.4 L 65.1 -36.4 L 65.1 -36.4 Q 62.9 -35.1 60 -35.1 Z M 75.7 -38.3 L 75.7 -38.3 L 75.7 -38.3 Q 74.2 -40 73.5 -42.6 L 73.5 -42.6 L 73.5 -42.6 Q 72.8 -45.2 72.8 -49.5 L 72.8 -49.5 L 72.8 -49.5 Q 72.8 -53.8 74.3 -57.7 L 74.3 -57.7 L 74.3 -57.7 Q 75.8 -61.6 78.5 -64.4 L 78.5 -64.4 L 78.5 -64.4 Q 84 -70.3 93 -70.3 L 93 -70.3 L 93 -70.3 Q 96.3 -70.3 98.7 -69.2 L 98.7 -69.2 L 109.6 -70.3 L 104.9 -45.3 L 104.9 -45.3 Q 104.7 -44.6 104.7 -43.2 L 104.7 -43.2 L 104.7 -43.2 Q 104.7 -41.8 105.6 -40.9 L 105.6 -40.9 L 105.6 -40.9 Q 106.4 -40 107.7 -39.8 L 107.7 -39.8 L 107.7 -39.8 Q 107.1 -37.7 104.7 -36.4 L 104.7 -36.4 L 104.7 -36.4 Q 102.4 -35.1 99.8 -35.1 L 99.8 -35.1 L 99.8 -35.1 Q 97.1 -35.1 95.4 -36.1 L 95.4 -36.1 L 95.4 -36.1 Q 93.6 -37.1 93.1 -38.7 L 93.1 -38.7 L 93.1 -38.7 Q 92.1 -37.1 89.9 -36.1 L 89.9 -36.1 L 89.9 -36.1 Q 87.7 -35.1 84.8 -35.1 L 84.8 -35.1 L 84.8 -35.1 Q 81.9 -35.1 79.5 -35.9 L 79.5 -35.9 L 79.5 -35.9 Q 77.2 -36.6 75.7 -38.3 Z M 89.2 -64.3 L 89.2 -64.3 L 89.2 -64.3 Q 88.4 -63.1 87.8 -61.2 L 87.8 -61.2 L 87.8 -61.2 Q 87.2 -59.2 86.1 -54 L 86.1 -54 L 86.1 -54 Q 85 -48.8 85 -45.1 L 85 -45.1 L 85 -45.1 Q 85 -41.4 85.6 -40.3 L 85.6 -40.3 L 85.6 -40.3 Q 86.2 -39.2 87.2 -39.2 L 87.2 -39.2 L 87.2 -39.2 Q 89.3 -39.2 90.8 -41.1 L 90.8 -41.1 L 90.8 -41.1 Q 92.3 -43.1 92.9 -46.6 L 92.9 -46.6 L 96.2 -65.3 L 96.2 -65.3 Q 94.9 -66.5 93.3 -66.5 L 93.3 -66.5 L 93.3 -66.5 Q 91.8 -66.5 90.8 -65.9 L 90.8 -65.9 L 90.8 -65.9 Q 89.9 -65.4 89.2 -64.3 Z M 117.4 -63.1 L 117.4 -63.1 L 117.4 -63.1 Q 119.5 -66.2 122.8 -68.2 L 122.8 -68.2 L 122.8 -68.2 Q 126.1 -70.3 130.2 -70.3 L 130.2 -70.3 L 130.2 -70.3 Q 134.2 -70.3 136.1 -69 L 136.1 -69 L 148.7 -70.3 L 144.3 -45.7 L 144.3 -45.7 Q 142.1 -33.2 137.3 -28.2 L 137.3 -28.2 L 137.3 -28.2 Q 132.8 -23.6 124 -23.6 L 124 -23.6 L 124 -23.6 Q 117.2 -23.6 113.4 -25.7 L 113.4 -25.7 L 113.4 -25.7 Q 109.6 -27.8 109.6 -31.3 L 109.6 -31.3 L 109.6 -31.3 Q 109.6 -33.9 111.5 -35.4 L 111.5 -35.4 L 111.5 -35.4 Q 113.5 -37 116.6 -37 L 116.6 -37 L 116.6 -37 Q 119.3 -37 121.3 -35.7 L 121.3 -35.7 L 121.3 -35.7 Q 122.6 -35.1 123.1 -34.2 L 123.1 -34.2 L 123.1 -34.2 Q 121.7 -32.9 121.7 -30.8 L 121.7 -30.8 L 121.7 -30.8 Q 121.7 -28.1 124.2 -28.1 L 124.2 -28.1 L 124.2 -28.1 Q 128.5 -28.1 130.9 -38.2 L 130.9 -38.2 L 130.9 -38.2 Q 131.6 -40.9 132.2 -43.7 L 132.2 -43.7 L 132.2 -43.7 Q 129.3 -40.2 122.8 -40.2 L 122.8 -40.2 L 122.8 -40.2 Q 118.3 -40.2 115.6 -42.3 L 115.6 -42.3 L 115.6 -42.3 Q 113 -44.5 113 -49.6 L 113 -49.6 L 113 -49.6 Q 113 -52.8 114.1 -56.4 L 114.1 -56.4 L 114.1 -56.4 Q 115.2 -60.1 117.4 -63.1 Z M 125.7 -49.4 L 125.7 -49.4 L 125.7 -49.4 Q 125.7 -45.1 127.9 -45.1 L 127.9 -45.1 L 127.9 -45.1 Q 129.5 -45.1 130.9 -46.7 L 130.9 -46.7 L 130.9 -46.7 Q 132.1 -48.1 132.5 -50.1 L 132.5 -50.1 L 135.8 -66.5 L 135.8 -66.5 Q 135.5 -66.6 135.2 -66.7 L 135.2 -66.7 L 135.2 -66.7 Q 134.5 -67 133.7 -67 L 133.7 -67 L 133.7 -67 Q 129.8 -67 127.5 -60.6 L 127.5 -60.6 L 127.5 -60.6 Q 125.7 -55.6 125.7 -49.4 Z M 177.1 -47.2 L 177.1 -47.2 L 177.1 -47.2 Q 178.7 -46.1 178.7 -43.7 L 178.7 -43.7 L 178.7 -43.7 Q 178.7 -41.3 177.5 -39.8 L 177.5 -39.8 L 177.5 -39.8 Q 176.2 -38.2 174.3 -37.2 L 174.3 -37.2 L 174.3 -37.2 Q 170.2 -35.1 165.8 -35.1 L 165.8 -35.1 L 165.8 -35.1 Q 161.3 -35.1 158.7 -36.1 L 158.7 -36.1 L 158.7 -36.1 Q 156.2 -37 154.4 -38.8 L 154.4 -38.8 L 154.4 -38.8 Q 151 -42.2 151 -48.4 L 151 -48.4 L 151 -48.4 Q 151 -58.1 156.3 -64 L 156.3 -64 L 156.3 -64 Q 161.9 -70.3 171.7 -70.3 L 171.7 -70.3 L 171.7 -70.3 Q 177.8 -70.3 180.8 -67.7 L 180.8 -67.7 L 180.8 -67.7 Q 183 -65.8 183 -62.7 L 183 -62.7 L 183 -62.7 Q 183 -51.4 163.6 -51.4 L 163.6 -51.4 L 163.6 -51.4 Q 163.3 -49.8 163.3 -48.3 L 163.3 -48.3 L 163.3 -48.3 Q 163.3 -45.4 164.6 -44.3 L 164.6 -44.3 L 164.6 -44.3 Q 165.9 -43.2 168.4 -43.2 L 168.4 -43.2 L 168.4 -43.2 Q 170.8 -43.2 173.4 -44.3 L 173.4 -44.3 L 173.4 -44.3 Q 176 -45.4 177.1 -47.2 Z M 164 -54.2 L 164 -54.2 L 164 -54.2 Q 168.6 -54.2 171.2 -57 L 171.2 -57 L 171.2 -57 Q 173.8 -59.7 173.8 -64 L 173.8 -64 L 173.8 -64 Q 173.8 -65.4 173.3 -66.2 L 173.3 -66.2 L 173.3 -66.2 Q 172.7 -67 171.6 -67 L 171.6 -67 L 171.6 -67 Q 170.6 -67 169.6 -66.6 L 169.6 -66.6 L 169.6 -66.6 Q 168.7 -66.2 167.7 -64.8 L 167.7 -64.8 L 167.7 -64.8 Q 165.4 -61.6 164 -54.2 Z M 204.3 -58.8 L 204.3 -58.8 L 204.3 -58.8 Q 205.2 -61.2 205.2 -63.3 L 205.2 -63.3 L 205.2 -63.3 Q 205.2 -67 202.2 -67 L 202.2 -67 L 202.2 -67 Q 200.6 -67 199.3 -65.6 L 199.3 -65.6 L 199.3 -65.6 Q 197.9 -64.2 197.9 -62.4 L 197.9 -62.4 L 197.9 -62.4 Q 197.9 -61.1 199 -60.1 L 199 -60.1 L 199 -60.1 Q 200.4 -58.6 204.2 -56.3 L 204.2 -56.3 L 204.2 -56.3 Q 208 -54 209.4 -52.2 L 209.4 -52.2 L 209.4 -52.2 Q 210.9 -50.3 210.9 -47.7 L 210.9 -47.7 L 210.9 -47.7 Q 210.9 -45.1 209.6 -42.7 L 209.6 -42.7 L 209.6 -42.7 Q 208.4 -40.3 206.1 -38.7 L 206.1 -38.7 L 206.1 -38.7 Q 201.3 -35.1 193.7 -35.1 L 193.7 -35.1 L 193.7 -35.1 Q 189.5 -35.1 186.3 -37.3 L 186.3 -37.3 L 186.3 -37.3 Q 183.1 -39.4 183.1 -41.9 L 183.1 -41.9 L 183.1 -41.9 Q 183.1 -44.4 184.9 -45.8 L 184.9 -45.8 L 184.9 -45.8 Q 186.7 -47.3 189.4 -47.3 L 189.4 -47.3 L 189.4 -47.3 Q 192.1 -47.3 193.8 -46.3 L 193.8 -46.3 L 193.8 -46.3 Q 193 -44.2 193 -42.8 L 193 -42.8 L 193 -42.8 Q 193 -38.6 196.5 -38.6 L 196.5 -38.6 L 196.5 -38.6 Q 198.1 -38.6 199.1 -39.5 L 199.1 -39.5 L 199.1 -39.5 Q 200.1 -40.5 200.1 -42.1 L 200.1 -42.1 L 200.1 -42.1 Q 200.1 -45.4 194.6 -48.9 L 194.6 -48.9 L 194.6 -48.9 Q 190.1 -51.8 189.1 -53 L 189.1 -53 L 189.1 -53 Q 187.4 -55 187.4 -57.6 L 187.4 -57.6 L 187.4 -57.6 Q 187.4 -60.1 188.6 -62.6 L 188.6 -62.6 L 188.6 -62.6 Q 189.8 -65 192.1 -66.7 L 192.1 -66.7 L 192.1 -66.7 Q 196.7 -70.3 204.9 -70.3 L 204.9 -70.3 L 204.9 -70.3 Q 209 -70.3 211.5 -68.6 L 211.5 -68.6 L 211.5 -68.6 Q 213.9 -67 213.9 -64.2 L 213.9 -64.2 L 213.9 -64.2 Q 213.9 -61.3 212.2 -59.7 L 212.2 -59.7 L 212.2 -59.7 Q 210.6 -58.1 207.5 -58.1 L 207.5 -58.1 L 207.5 -58.1 Q 205.4 -58.1 204.3 -58.8 Z M 255.4 -57 L 268.3 -58.1 L 268.3 -58.1 Q 263.7 -48 263.7 -36.3 L 263.7 -36.3 L 263.7 -36.3 Q 262 -35.1 259.5 -35.1 L 259.5 -35.1 L 259.5 -35.1 Q 257 -35.1 255.4 -36.3 L 255.4 -36.3 L 255.4 -36.3 Q 253.8 -37.5 253.4 -38.7 L 253.4 -38.7 L 253.4 -38.7 Q 251.8 -37 249.2 -36.1 L 249.2 -36.1 L 249.2 -36.1 Q 246.6 -35.1 243.9 -35.1 L 243.9 -35.1 L 243.9 -35.1 Q 241.1 -35.1 238.7 -36 L 238.7 -36 L 238.7 -36 Q 236.3 -36.9 234.5 -38.9 L 234.5 -38.9 L 234.5 -38.9 Q 230.4 -43.2 230.4 -51.5 L 230.4 -51.5 L 230.4 -51.5 Q 230.4 -64.3 237.2 -72 L 237.2 -72 L 237.2 -72 Q 244.3 -79.9 256.8 -79.9 L 256.8 -79.9 L 256.8 -79.9 Q 265.4 -79.9 268.5 -75.4 L 268.5 -75.4 L 268.5 -75.4 Q 269.4 -74 269.4 -72.3 L 269.4 -72.3 L 269.4 -72.3 Q 269.4 -70.6 268.7 -69.2 L 268.7 -69.2 L 268.7 -69.2 Q 268 -67.7 266.8 -66.6 L 266.8 -66.6 L 266.8 -66.6 Q 264.1 -64 260.7 -64 L 260.7 -64 L 260.7 -64 Q 259.3 -64 258 -64.5 L 258 -64.5 L 258 -64.5 Q 258.3 -66.4 258.3 -68.6 L 258.3 -68.6 L 258.3 -68.6 Q 258.3 -70.9 258.1 -71.9 L 258.1 -71.9 L 258.1 -71.9 Q 258 -72.9 257.6 -73.8 L 257.6 -73.8 L 257.6 -73.8 Q 256.8 -75.5 254.9 -75.5 L 254.9 -75.5 L 254.9 -75.5 Q 253.1 -75.5 251.1 -73.5 L 251.1 -73.5 L 251.1 -73.5 Q 249.1 -71.6 247.5 -68.4 L 247.5 -68.4 L 247.5 -68.4 Q 244 -61.2 244 -52.6 L 244 -52.6 L 244 -52.6 Q 244 -48.6 245.5 -45.8 L 245.5 -45.8 L 245.5 -45.8 Q 247.2 -42.7 250.1 -42.7 L 250.1 -42.7 L 250.1 -42.7 Q 251.1 -42.7 252.1 -43.2 L 252.1 -43.2 L 252.1 -43.2 Q 253 -43.7 253.4 -44.1 L 253.4 -44.1 L 255.4 -57 Z M 274.3 -38.3 L 274.3 -38.3 L 274.3 -38.3 Q 272.8 -40 272.1 -42.6 L 272.1 -42.6 L 272.1 -42.6 Q 271.4 -45.2 271.4 -49.5 L 271.4 -49.5 L 271.4 -49.5 Q 271.4 -53.8 272.9 -57.7 L 272.9 -57.7 L 272.9 -57.7 Q 274.4 -61.6 277 -64.4 L 277 -64.4 L 277 -64.4 Q 282.6 -70.3 291.6 -70.3 L 291.6 -70.3 L 291.6 -70.3 Q 294.9 -70.3 297.3 -69.2 L 297.3 -69.2 L 308.2 -70.3 L 303.5 -45.3 L 303.5 -45.3 Q 303.3 -44.6 303.3 -43.2 L 303.3 -43.2 L 303.3 -43.2 Q 303.3 -41.8 304.2 -40.9 L 304.2 -40.9 L 304.2 -40.9 Q 305 -40 306.3 -39.8 L 306.3 -39.8 L 306.3 -39.8 Q 305.7 -37.7 303.3 -36.4 L 303.3 -36.4 L 303.3 -36.4 Q 301 -35.1 298.4 -35.1 L 298.4 -35.1 L 298.4 -35.1 Q 295.7 -35.1 294 -36.1 L 294 -36.1 L 294 -36.1 Q 292.2 -37.1 291.7 -38.7 L 291.7 -38.7 L 291.7 -38.7 Q 290.7 -37.1 288.5 -36.1 L 288.5 -36.1 L 288.5 -36.1 Q 286.3 -35.1 283.4 -35.1 L 283.4 -35.1 L 283.4 -35.1 Q 280.5 -35.1 278.1 -35.9 L 278.1 -35.9 L 278.1 -35.9 Q 275.8 -36.6 274.3 -38.3 Z M 287.8 -64.3 L 287.8 -64.3 L 287.8 -64.3 Q 287 -63.1 286.4 -61.2 L 286.4 -61.2 L 286.4 -61.2 Q 285.8 -59.2 284.7 -54 L 284.7 -54 L 284.7 -54 Q 283.6 -48.8 283.6 -45.1 L 283.6 -45.1 L 283.6 -45.1 Q 283.6 -41.4 284.2 -40.3 L 284.2 -40.3 L 284.2 -40.3 Q 284.8 -39.2 285.8 -39.2 L 285.8 -39.2 L 285.8 -39.2 Q 287.9 -39.2 289.4 -41.1 L 289.4 -41.1 L 289.4 -41.1 Q 290.9 -43.1 291.4 -46.6 L 291.4 -46.6 L 294.8 -65.3 L 294.8 -65.3 Q 293.5 -66.5 291.9 -66.5 L 291.9 -66.5 L 291.9 -66.5 Q 290.4 -66.5 289.4 -65.9 L 289.4 -65.9 L 289.4 -65.9 Q 288.5 -65.4 287.8 -64.3 Z M 327 -39.9 L 327 -39.9 L 327 -39.9 Q 325 -35.1 318.6 -35.1 L 318.6 -35.1 L 318.6 -35.1 Q 315.4 -35.1 313.4 -37.3 L 313.4 -37.3 L 313.4 -37.3 Q 311.7 -39.2 311.7 -41.3 L 311.7 -41.3 L 311.7 -41.3 Q 311.7 -46.1 314 -56.6 L 314 -56.6 L 318.6 -81.2 L 331.6 -82.5 L 325.4 -50.1 L 325.4 -50.1 Q 324.3 -45.3 324.3 -43.7 L 324.3 -43.7 L 324.3 -43.7 Q 324.3 -40 327 -39.9 Z M 347.7 -39.9 L 347.7 -39.9 L 347.7 -39.9 Q 345.7 -35.1 339.4 -35.1 L 339.4 -35.1 L 339.4 -35.1 Q 336.2 -35.1 334.1 -37.3 L 334.1 -37.3 L 334.1 -37.3 Q 332.5 -39.2 332.5 -41.3 L 332.5 -41.3 L 332.5 -41.3 Q 332.5 -46.1 334.7 -56.6 L 334.7 -56.6 L 339.4 -81.2 L 352.4 -82.5 L 346.2 -50.1 L 346.2 -50.1 Q 345.1 -45.3 345.1 -43.7 L 345.1 -43.7 L 345.1 -43.7 Q 345.1 -40 347.7 -39.9 Z M 379.1 -47.2 L 379.1 -47.2 L 379.1 -47.2 Q 380.7 -46.1 380.7 -43.7 L 380.7 -43.7 L 380.7 -43.7 Q 380.7 -41.3 379.4 -39.8 L 379.4 -39.8 L 379.4 -39.8 Q 378.2 -38.2 376.2 -37.2 L 376.2 -37.2 L 376.2 -37.2 Q 372.2 -35.1 367.7 -35.1 L 367.7 -35.1 L 367.7 -35.1 Q 363.3 -35.1 360.7 -36.1 L 360.7 -36.1 L 360.7 -36.1 Q 358.1 -37 356.4 -38.8 L 356.4 -38.8 L 356.4 -38.8 Q 353 -42.2 353 -48.4 L 353 -48.4 L 353 -48.4 Q 353 -58.1 358.3 -64 L 358.3 -64 L 358.3 -64 Q 363.9 -70.3 373.7 -70.3 L 373.7 -70.3 L 373.7 -70.3 Q 379.8 -70.3 382.8 -67.7 L 382.8 -67.7 L 382.8 -67.7 Q 385 -65.8 385 -62.7 L 385 -62.7 L 385 -62.7 Q 385 -51.4 365.6 -51.4 L 365.6 -51.4 L 365.6 -51.4 Q 365.3 -49.8 365.3 -48.3 L 365.3 -48.3 L 365.3 -48.3 Q 365.3 -45.4 366.6 -44.3 L 366.6 -44.3 L 366.6 -44.3 Q 367.9 -43.2 370.4 -43.2 L 370.4 -43.2 L 370.4 -43.2 Q 372.8 -43.2 375.4 -44.3 L 375.4 -44.3 L 375.4 -44.3 Q 378 -45.4 379.1 -47.2 Z M 366 -54.2 L 366 -54.2 L 366 -54.2 Q 370.6 -54.2 373.2 -57 L 373.2 -57 L 373.2 -57 Q 375.8 -59.7 375.8 -64 L 375.8 -64 L 375.8 -64 Q 375.8 -65.4 375.3 -66.2 L 375.3 -66.2 L 375.3 -66.2 Q 374.7 -67 373.6 -67 L 373.6 -67 L 373.6 -67 Q 372.5 -67 371.6 -66.6 L 371.6 -66.6 L 371.6 -66.6 Q 370.7 -66.2 369.7 -64.8 L 369.7 -64.8 L 369.7 -64.8 Q 367.4 -61.6 366 -54.2 Z M 407.2 -54.4 L 407.2 -54.4 L 407.2 -54.4 Q 409.5 -58.5 409.5 -62.6 L 409.5 -62.6 L 409.5 -62.6 Q 409.5 -65.4 407.5 -65.4 L 407.5 -65.4 L 407.5 -65.4 Q 406 -65.4 404.4 -62.7 L 404.4 -62.7 L 404.4 -62.7 Q 402.7 -60.1 402.2 -56.7 L 402.2 -56.7 L 398.9 -36.4 L 385.7 -35.1 L 392.2 -69 L 402.7 -70.3 L 401.6 -63.8 L 401.6 -63.8 Q 404.7 -70.3 411.8 -70.3 L 411.8 -70.3 L 411.8 -70.3 Q 415.5 -70.3 417.5 -68.4 L 417.5 -68.4 L 417.5 -68.4 Q 419.5 -66.5 419.5 -62.5 L 419.5 -62.5 L 419.5 -62.5 Q 419.5 -58.6 416.9 -56.1 L 416.9 -56.1 L 416.9 -56.1 Q 414.3 -53.6 409.9 -53.6 L 409.9 -53.6 L 409.9 -53.6 Q 408 -53.6 407.2 -54.4 Z M 440.9 -43.6 L 440.9 -43.6 L 440.9 -43.6 Q 437.6 -40.2 431.5 -40.2 L 431.5 -40.2 L 431.5 -40.2 Q 423.9 -40.2 422.3 -45.7 L 422.3 -45.7 L 422.3 -45.7 Q 421.8 -47.4 421.8 -49.2 L 421.8 -49.2 L 421.8 -49.2 Q 421.8 -51.1 422.1 -53 L 422.1 -53 L 425.1 -69 L 438.1 -70.3 L 434.6 -51.7 L 434.6 -51.7 Q 434.5 -50.8 434.3 -49.9 L 434.3 -49.9 L 434.3 -49.9 Q 434.1 -49 434.1 -48.1 L 434.1 -48.1 L 434.1 -48.1 Q 434.1 -47.2 434.4 -46.6 L 434.4 -46.6 L 434.4 -46.6 Q 434.7 -46 435.2 -45.6 L 435.2 -45.6 L 435.2 -45.6 Q 436 -45.1 437.3 -45.1 L 437.3 -45.1 L 437.3 -45.1 Q 438.7 -45.1 439.9 -46.7 L 439.9 -46.7 L 439.9 -46.7 Q 441.1 -48.4 441.7 -51.3 L 441.7 -51.3 L 445.2 -69 L 457.8 -70.3 L 453 -45.1 L 453 -45.1 Q 450.6 -32.9 445.8 -28 L 445.8 -28 L 445.8 -28 Q 443.3 -25.5 440 -24.5 L 440 -24.5 L 440 -24.5 Q 436.8 -23.5 432.6 -23.5 L 432.6 -23.5 L 432.6 -23.5 Q 425.9 -23.5 422.1 -25.6 L 422.1 -25.6 L 422.1 -25.6 Q 418.2 -27.7 418.2 -31.3 L 418.2 -31.3 L 418.2 -31.3 Q 418.2 -33.9 420.2 -35.4 L 420.2 -35.4 L 420.2 -35.4 Q 422.2 -36.9 425.3 -36.9 L 425.3 -36.9 L 425.3 -36.9 Q 428 -36.9 430 -35.7 L 430 -35.7 L 430 -35.7 Q 431.2 -35 431.8 -34.1 L 431.8 -34.1 L 431.8 -34.1 Q 430.3 -32.9 430.3 -30.7 L 430.3 -30.7 L 430.3 -30.7 Q 430.3 -27.9 432.9 -27.9 L 432.9 -27.9 L 432.9 -27.9 Q 437.1 -27.9 439.5 -37.7 L 439.5 -37.7 L 439.5 -37.7 Q 440.2 -40.5 440.9 -43.6 Z" fill="url(#editing-gradient-gradient)"></path></g></g><style>text {
  font-size: 64px;
  font-family: Arial Black;
  dominant-baseline: central;
  text-anchor: middle;
}</style></svg>